ISO-10303-21;
HEADER;
FILE_DESCRIPTION(('STEP AP214'),'1');
FILE_NAME('_ball2.step','2025-04-19T07:18:53',(' '),(' '),'Spatial InterOp 3D',' ',' ');
FILE_SCHEMA(('AUTOMOTIVE_DESIGN { 1 0 10303 214 1 1 1 1 }'));
ENDSEC;
DATA;
#1=PRODUCT_DEFINITION_CONTEXT('',#9,'design');
#2=APPLICATION_PROTOCOL_DEFINITION('INTERNATIONAL STANDARD','automotive_design',1994,#9);
#3=PRODUCT_CATEGORY_RELATIONSHIP('NONE','NONE',#10,#11);
#4=SHAPE_DEFINITION_REPRESENTATION(#12,#13);
#5= (GEOMETRIC_REPRESENTATION_CONTEXT(3)GLOBAL_UNCERTAINTY_ASSIGNED_CONTEXT((#16))GLOBAL_UNIT_ASSIGNED_CONTEXT((#18,#19,#20))REPRESENTATION_CONTEXT('NONE','WORKSPACE'));
#9=APPLICATION_CONTEXT(' ');
#10=PRODUCT_CATEGORY('part','NONE');
#11=PRODUCT_RELATED_PRODUCT_CATEGORY('detail',' ',(#22));
#12=PRODUCT_DEFINITION_SHAPE('NONE','NONE',#23);
#13=ADVANCED_BREP_SHAPE_REPRESENTATION('1',(#24,#25),#5);
#16=UNCERTAINTY_MEASURE_WITH_UNIT(LENGTH_MEASURE(1.0E-06),#18,'','');
#18= (CONVERSION_BASED_UNIT('MILLIMETRE',#28)LENGTH_UNIT()NAMED_UNIT(#31));
#19= (NAMED_UNIT(#33)PLANE_ANGLE_UNIT()SI_UNIT($,.RADIAN.));
#20= (NAMED_UNIT(#33)SOLID_ANGLE_UNIT()SI_UNIT($,.STERADIAN.));
#22=PRODUCT('1','','PART--DESC',(#39));
#23=PRODUCT_DEFINITION('','NONE',#40,#1);
#24=MANIFOLD_SOLID_BREP('1',#41);
#25=AXIS2_PLACEMENT_3D('',#42,#43,#44);
#28=LENGTH_MEASURE_WITH_UNIT(LENGTH_MEASURE(1.0),#45);
#31=DIMENSIONAL_EXPONENTS(1.0,0.0,0.0,0.0,0.0,0.0,0.0);
#33=DIMENSIONAL_EXPONENTS(0.0,0.0,0.0,0.0,0.0,0.0,0.0);
#39=PRODUCT_CONTEXT('',#9,'mechanical');
#40=PRODUCT_DEFINITION_FORMATION_WITH_SPECIFIED_SOURCE(' ','NONE',#22,.NOT_KNOWN.);
#41=CLOSED_SHELL('',(#46,#47,#48,#49));
#42=CARTESIAN_POINT('',(0.0,0.0,0.0));
#43=DIRECTION('',(0.0,0.0,1.0));
#44=DIRECTION('',(1.0,0.0,0.0));
#45= (NAMED_UNIT(#31)LENGTH_UNIT()SI_UNIT(.MILLI.,.METRE.));
#46=ADVANCED_FACE('',(#51),#52,.F.);
#47=ADVANCED_FACE('',(#53),#54,.F.);
#48=ADVANCED_FACE('',(#55,#56),#57,.T.);
#49=ADVANCED_FACE('',(#58,#59),#60,.T.);
#51=FACE_OUTER_BOUND('',#61,.T.);
#52=CYLINDRICAL_SURFACE('',#62,2.0);
#53=FACE_OUTER_BOUND('',#63,.T.);
#54=CYLINDRICAL_SURFACE('',#64,2.0);
#55=FACE_BOUND('',#65,.T.);
#56=FACE_OUTER_BOUND('',#66,.T.);
#57=SPHERICAL_SURFACE('',#67,10.0);
#58=FACE_BOUND('',#68,.T.);
#59=FACE_OUTER_BOUND('',#69,.T.);
#60=SPHERICAL_SURFACE('',#70,10.0);
#61=EDGE_LOOP('',(#71,#72,#73,#74));
#62=AXIS2_PLACEMENT_3D('',#75,#76,#77);
#63=EDGE_LOOP('',(#78,#79,#80,#81));
#64=AXIS2_PLACEMENT_3D('',#82,#83,#84);
#65=EDGE_LOOP('',(#85,#86));
#66=EDGE_LOOP('',(#87,#88));
#67=AXIS2_PLACEMENT_3D('',#89,#90,#91);
#68=EDGE_LOOP('',(#92,#93));
#69=EDGE_LOOP('',(#94,#95));
#70=AXIS2_PLACEMENT_3D('',#96,#97,#98);
#71=ORIENTED_EDGE('',*,*,#99,.F.);
#72=ORIENTED_EDGE('',*,*,#100,.F.);
#73=ORIENTED_EDGE('',*,*,#101,.F.);
#74=ORIENTED_EDGE('',*,*,#102,.T.);
#75=CARTESIAN_POINT('',(0.0,0.0,0.0));
#76=DIRECTION('',(-0.0,1.0,0.0));
#77=DIRECTION('',(1.0,0.0,0.0));
#78=ORIENTED_EDGE('',*,*,#103,.F.);
#79=ORIENTED_EDGE('',*,*,#102,.F.);
#80=ORIENTED_EDGE('',*,*,#104,.F.);
#81=ORIENTED_EDGE('',*,*,#100,.T.);
#82=CARTESIAN_POINT('',(0.0,0.0,0.0));
#83=DIRECTION('',(-0.0,1.0,0.0));
#84=DIRECTION('',(1.0,0.0,0.0));
#85=ORIENTED_EDGE('',*,*,#103,.T.);
#86=ORIENTED_EDGE('',*,*,#99,.T.);
#87=ORIENTED_EDGE('',*,*,#105,.F.);
#88=ORIENTED_EDGE('',*,*,#106,.T.);
#89=CARTESIAN_POINT('',(0.0,0.0,0.0));
#90=DIRECTION('',(0.0,0.0,1.0));
#91=DIRECTION('',(1.0,0.0,0.0));
#92=ORIENTED_EDGE('',*,*,#104,.T.);
#93=ORIENTED_EDGE('',*,*,#101,.T.);
#94=ORIENTED_EDGE('',*,*,#105,.T.);
#95=ORIENTED_EDGE('',*,*,#106,.F.);
#96=CARTESIAN_POINT('',(0.0,0.0,0.0));
#97=DIRECTION('',(0.0,0.0,1.0));
#98=DIRECTION('',(1.0,0.0,0.0));
#99=EDGE_CURVE('',#107,#108,#109,.T.);
#100=EDGE_CURVE('',#110,#107,#111,.T.);
#101=EDGE_CURVE('',#112,#110,#113,.T.);
#102=EDGE_CURVE('',#112,#108,#114,.T.);
#103=EDGE_CURVE('',#108,#107,#115,.T.);
#104=EDGE_CURVE('',#110,#112,#116,.T.);
#105=EDGE_CURVE('',#117,#118,#119,.T.);
#106=EDGE_CURVE('',#117,#118,#120,.T.);
#107=VERTEX_POINT('',#121);
#108=VERTEX_POINT('',#122);
#109=CIRCLE('',#123,2.0);
#110=VERTEX_POINT('',#124);
#111=LINE('',#125,#126);
#112=VERTEX_POINT('',#127);
#113=CIRCLE('',#128,2.0);
#114=LINE('',#129,#130);
#115=CIRCLE('',#131,2.0);
#116=CIRCLE('',#132,2.0);
#117=VERTEX_POINT('',#133);
#118=VERTEX_POINT('',#134);
#119=CIRCLE('',#135,10.0);
#120=CIRCLE('',#136,10.0);
#121=CARTESIAN_POINT('',(2.0,-9.79795897113271,0.0));
#122=CARTESIAN_POINT('',(-2.0,-9.79795897113271,2.44929359829471E-16));
#123=AXIS2_PLACEMENT_3D('',#137,#138,#139);
#124=CARTESIAN_POINT('',(2.0,9.79795897113271,0.0));
#125=CARTESIAN_POINT('',(2.0,0.0,0.0));
#126=VECTOR('',#140,2.0);
#127=CARTESIAN_POINT('',(-2.0,9.79795897113271,2.44929359829471E-16));
#128=AXIS2_PLACEMENT_3D('',#141,#142,#143);
#129=CARTESIAN_POINT('',(-2.0,0.0,2.44929359829471E-16));
#130=VECTOR('',#144,2.0);
#131=AXIS2_PLACEMENT_3D('',#145,#146,#147);
#132=AXIS2_PLACEMENT_3D('',#148,#149,#150);
#133=CARTESIAN_POINT('',(-6.12323399573677E-16,-7.49879891330929E-32,10.0));
#134=CARTESIAN_POINT('',(-6.12323399573677E-16,-7.49879891330929E-32,-10.0));
#135=AXIS2_PLACEMENT_3D('',#151,#152,#153);
#136=AXIS2_PLACEMENT_3D('',#154,#155,#156);
#137=CARTESIAN_POINT('',(0.0,-9.79795897113271,0.0));
#138=DIRECTION('',(-0.0,1.0,0.0));
#139=DIRECTION('',(1.0,0.0,0.0));
#140=DIRECTION('',(-0.0,-1.0,0.0));
#141=CARTESIAN_POINT('',(0.0,9.79795897113271,0.0));
#142=DIRECTION('',(0.0,-1.0,0.0));
#143=DIRECTION('',(1.0,0.0,0.0));
#144=DIRECTION('',(-0.0,-1.0,0.0));
#145=CARTESIAN_POINT('',(0.0,-9.79795897113271,0.0));
#146=DIRECTION('',(-0.0,1.0,0.0));
#147=DIRECTION('',(1.0,0.0,0.0));
#148=CARTESIAN_POINT('',(0.0,9.79795897113271,0.0));
#149=DIRECTION('',(0.0,-1.0,0.0));
#150=DIRECTION('',(1.0,0.0,0.0));
#151=CARTESIAN_POINT('',(0.0,0.0,0.0));
#152=DIRECTION('',(-0.0,1.0,0.0));
#153=DIRECTION('',(1.0,0.0,0.0));
#154=CARTESIAN_POINT('',(0.0,0.0,0.0));
#155=DIRECTION('',(1.22464679914735E-16,-1.0,-0.0));
#156=DIRECTION('',(-1.0,-1.22464679914735E-16,0.0));
ENDSEC;
END-ISO-10303-21;
