ISO-10303-21;
HEADER;
FILE_DESCRIPTION(('STEP AP214'),'1');
FILE_NAME('fourBody.stp','2025-04-22T11:29:21',(' '),(' '),'Spatial InterOp 3D',' ',' ');
FILE_SCHEMA(('AUTOMOTIVE_DESIGN { 1 0 10303 214 1 1 1 1 }'));
ENDSEC;
DATA;
#1=PRODUCT_DEFINITION_CONTEXT('',#12,'design');
#2=APPLICATION_PROTOCOL_DEFINITION('INTERNATIONAL STANDARD','automotive_design',1994,#12);
#3=PRODUCT_CATEGORY_RELATIONSHIP('NONE','NONE',#13,#14);
#4=SHAPE_DEFINITION_REPRESENTATION(#15,#16);
#5=SHAPE_DEFINITION_REPRESENTATION(#15,#17);
#6=SHAPE_DEFINITION_REPRESENTATION(#15,#18);
#7=SHAPE_DEFINITION_REPRESENTATION(#15,#19);
#8= (GEOMETRIC_REPRESENTATION_CONTEXT(3)GLOBAL_UNCERTAINTY_ASSIGNED_CONTEXT((#22))GLOBAL_UNIT_ASSIGNED_CONTEXT((#24,#25,#26))REPRESENTATION_CONTEXT('NONE','WORKSPACE'));
#12=APPLICATION_CONTEXT(' ');
#13=PRODUCT_CATEGORY('part','NONE');
#14=PRODUCT_RELATED_PRODUCT_CATEGORY('detail',' ',(#28));
#15=PRODUCT_DEFINITION_SHAPE('NONE','NONE',#29);
#16=ADVANCED_BREP_SHAPE_REPRESENTATION('1',(#30,#31),#8);
#17=ADVANCED_BREP_SHAPE_REPRESENTATION('2',(#32,#33),#8);
#18=ADVANCED_BREP_SHAPE_REPRESENTATION('3',(#34,#35),#8);
#19=ADVANCED_BREP_SHAPE_REPRESENTATION('4',(#36,#37),#8);
#22=UNCERTAINTY_MEASURE_WITH_UNIT(LENGTH_MEASURE(1.0E-06),#24,'','');
#24= (CONVERSION_BASED_UNIT('MILLIMETRE',#40)LENGTH_UNIT()NAMED_UNIT(#43));
#25= (NAMED_UNIT(#45)PLANE_ANGLE_UNIT()SI_UNIT($,.RADIAN.));
#26= (NAMED_UNIT(#45)SOLID_ANGLE_UNIT()SI_UNIT($,.STERADIAN.));
#28=PRODUCT('1','','PART--DESC',(#51));
#29=PRODUCT_DEFINITION('','NONE',#52,#1);
#30=MANIFOLD_SOLID_BREP('1',#53);
#31=AXIS2_PLACEMENT_3D('',#54,#55,#56);
#32=MANIFOLD_SOLID_BREP('2',#57);
#33=AXIS2_PLACEMENT_3D('',#58,#59,#60);
#34=MANIFOLD_SOLID_BREP('3',#61);
#35=AXIS2_PLACEMENT_3D('',#62,#63,#64);
#36=MANIFOLD_SOLID_BREP('4',#65);
#37=AXIS2_PLACEMENT_3D('',#66,#67,#68);
#40=LENGTH_MEASURE_WITH_UNIT(LENGTH_MEASURE(1.0),#69);
#43=DIMENSIONAL_EXPONENTS(1.0,0.0,0.0,0.0,0.0,0.0,0.0);
#45=DIMENSIONAL_EXPONENTS(0.0,0.0,0.0,0.0,0.0,0.0,0.0);
#51=PRODUCT_CONTEXT('',#12,'mechanical');
#52=PRODUCT_DEFINITION_FORMATION_WITH_SPECIFIED_SOURCE(' ','NONE',#28,.NOT_KNOWN.);
#53=CLOSED_SHELL('',(#70,#71,#72,#73,#74,#75));
#54=CARTESIAN_POINT('',(0.0,0.0,0.0));
#55=DIRECTION('',(0.0,0.0,1.0));
#56=DIRECTION('',(1.0,0.0,0.0));
#57=CLOSED_SHELL('',(#76,#77));
#58=CARTESIAN_POINT('',(0.0,0.0,0.0));
#59=DIRECTION('',(0.0,0.0,1.0));
#60=DIRECTION('',(1.0,0.0,0.0));
#61=CLOSED_SHELL('',(#78,#79,#80,#81));
#62=CARTESIAN_POINT('',(0.0,0.0,0.0));
#63=DIRECTION('',(0.0,0.0,1.0));
#64=DIRECTION('',(1.0,0.0,0.0));
#65=CLOSED_SHELL('',(#82,#83,#84,#85,#86,#87));
#66=CARTESIAN_POINT('',(0.0,0.0,0.0));
#67=DIRECTION('',(0.0,0.0,1.0));
#68=DIRECTION('',(1.0,0.0,0.0));
#69= (NAMED_UNIT(#43)LENGTH_UNIT()SI_UNIT(.MILLI.,.METRE.));
#70=ADVANCED_FACE('',(#89),#90,.T.);
#71=ADVANCED_FACE('',(#91),#92,.F.);
#72=ADVANCED_FACE('',(#93),#94,.F.);
#73=ADVANCED_FACE('',(#95),#96,.F.);
#74=ADVANCED_FACE('',(#97),#98,.F.);
#75=ADVANCED_FACE('',(#99),#100,.F.);
#76=ADVANCED_FACE('',(#101),#102,.T.);
#77=ADVANCED_FACE('',(#103),#104,.T.);
#78=ADVANCED_FACE('',(#105),#106,.T.);
#79=ADVANCED_FACE('',(#107),#108,.T.);
#80=ADVANCED_FACE('',(#109),#110,.T.);
#81=ADVANCED_FACE('',(#111),#112,.T.);
#82=ADVANCED_FACE('',(#113),#114,.T.);
#83=ADVANCED_FACE('',(#115),#116,.F.);
#84=ADVANCED_FACE('',(#117),#118,.F.);
#85=ADVANCED_FACE('',(#119),#120,.F.);
#86=ADVANCED_FACE('',(#121),#122,.F.);
#87=ADVANCED_FACE('',(#123),#124,.F.);
#89=FACE_OUTER_BOUND('',#125,.T.);
#90=PLANE('',#126);
#91=FACE_OUTER_BOUND('',#127,.T.);
#92=PLANE('',#128);
#93=FACE_OUTER_BOUND('',#129,.T.);
#94=PLANE('',#130);
#95=FACE_OUTER_BOUND('',#131,.T.);
#96=PLANE('',#132);
#97=FACE_OUTER_BOUND('',#133,.T.);
#98=PLANE('',#134);
#99=FACE_OUTER_BOUND('',#135,.T.);
#100=PLANE('',#136);
#101=FACE_OUTER_BOUND('',#137,.T.);
#102=SPHERICAL_SURFACE('',#138,10.0);
#103=FACE_OUTER_BOUND('',#139,.T.);
#104=SPHERICAL_SURFACE('',#140,10.0);
#105=FACE_OUTER_BOUND('',#141,.T.);
#106=CYLINDRICAL_SURFACE('',#142,20.0);
#107=FACE_OUTER_BOUND('',#143,.T.);
#108=CYLINDRICAL_SURFACE('',#144,20.0);
#109=FACE_OUTER_BOUND('',#145,.T.);
#110=PLANE('',#146);
#111=FACE_OUTER_BOUND('',#147,.T.);
#112=PLANE('',#148);
#113=FACE_OUTER_BOUND('',#149,.T.);
#114=PLANE('',#150);
#115=FACE_OUTER_BOUND('',#151,.T.);
#116=PLANE('',#152);
#117=FACE_OUTER_BOUND('',#153,.T.);
#118=PLANE('',#154);
#119=FACE_OUTER_BOUND('',#155,.T.);
#120=PLANE('',#156);
#121=FACE_OUTER_BOUND('',#157,.T.);
#122=PLANE('',#158);
#123=FACE_OUTER_BOUND('',#159,.T.);
#124=PLANE('',#160);
#125=EDGE_LOOP('',(#161,#162,#163,#164));
#126=AXIS2_PLACEMENT_3D('',#165,#166,#167);
#127=EDGE_LOOP('',(#168,#169,#170,#171));
#128=AXIS2_PLACEMENT_3D('',#172,#173,#174);
#129=EDGE_LOOP('',(#175,#176,#177,#178));
#130=AXIS2_PLACEMENT_3D('',#179,#180,#181);
#131=EDGE_LOOP('',(#182,#183,#184,#185));
#132=AXIS2_PLACEMENT_3D('',#186,#187,#188);
#133=EDGE_LOOP('',(#189,#190,#191,#192));
#134=AXIS2_PLACEMENT_3D('',#193,#194,#195);
#135=EDGE_LOOP('',(#196,#197,#198,#199));
#136=AXIS2_PLACEMENT_3D('',#200,#201,#202);
#137=EDGE_LOOP('',(#203,#204));
#138=AXIS2_PLACEMENT_3D('',#205,#206,#207);
#139=EDGE_LOOP('',(#208,#209));
#140=AXIS2_PLACEMENT_3D('',#210,#211,#212);
#141=EDGE_LOOP('',(#213,#214,#215,#216));
#142=AXIS2_PLACEMENT_3D('',#217,#218,#219);
#143=EDGE_LOOP('',(#220,#221,#222,#223));
#144=AXIS2_PLACEMENT_3D('',#224,#225,#226);
#145=EDGE_LOOP('',(#227,#228));
#146=AXIS2_PLACEMENT_3D('',#229,#230,#231);
#147=EDGE_LOOP('',(#232,#233));
#148=AXIS2_PLACEMENT_3D('',#234,#235,#236);
#149=EDGE_LOOP('',(#237,#238,#239,#240));
#150=AXIS2_PLACEMENT_3D('',#241,#242,#243);
#151=EDGE_LOOP('',(#244,#245,#246,#247));
#152=AXIS2_PLACEMENT_3D('',#248,#249,#250);
#153=EDGE_LOOP('',(#251,#252,#253,#254));
#154=AXIS2_PLACEMENT_3D('',#255,#256,#257);
#155=EDGE_LOOP('',(#258,#259,#260,#261));
#156=AXIS2_PLACEMENT_3D('',#262,#263,#264);
#157=EDGE_LOOP('',(#265,#266,#267,#268));
#158=AXIS2_PLACEMENT_3D('',#269,#270,#271);
#159=EDGE_LOOP('',(#272,#273,#274,#275));
#160=AXIS2_PLACEMENT_3D('',#276,#277,#278);
#161=ORIENTED_EDGE('',*,*,#279,.T.);
#162=ORIENTED_EDGE('',*,*,#280,.T.);
#163=ORIENTED_EDGE('',*,*,#281,.T.);
#164=ORIENTED_EDGE('',*,*,#282,.T.);
#165=CARTESIAN_POINT('',(50.0,50.0,100.0));
#166=DIRECTION('',(0.0,0.0,1.0));
#167=DIRECTION('',(1.0,0.0,0.0));
#168=ORIENTED_EDGE('',*,*,#283,.T.);
#169=ORIENTED_EDGE('',*,*,#284,.T.);
#170=ORIENTED_EDGE('',*,*,#285,.T.);
#171=ORIENTED_EDGE('',*,*,#286,.T.);
#172=CARTESIAN_POINT('',(50.0,50.0,0.0));
#173=DIRECTION('',(0.0,0.0,1.0));
#174=DIRECTION('',(1.0,0.0,0.0));
#175=ORIENTED_EDGE('',*,*,#287,.T.);
#176=ORIENTED_EDGE('',*,*,#284,.F.);
#177=ORIENTED_EDGE('',*,*,#288,.F.);
#178=ORIENTED_EDGE('',*,*,#282,.F.);
#179=CARTESIAN_POINT('',(50.0,0.0,50.0));
#180=DIRECTION('',(0.0,1.0,0.0));
#181=DIRECTION('',(0.0,0.0,1.0));
#182=ORIENTED_EDGE('',*,*,#289,.T.);
#183=ORIENTED_EDGE('',*,*,#285,.F.);
#184=ORIENTED_EDGE('',*,*,#287,.F.);
#185=ORIENTED_EDGE('',*,*,#281,.F.);
#186=CARTESIAN_POINT('',(0.0,50.0,50.0));
#187=DIRECTION('',(1.0,0.0,0.0));
#188=DIRECTION('',(0.0,0.0,-1.0));
#189=ORIENTED_EDGE('',*,*,#290,.T.);
#190=ORIENTED_EDGE('',*,*,#286,.F.);
#191=ORIENTED_EDGE('',*,*,#289,.F.);
#192=ORIENTED_EDGE('',*,*,#280,.F.);
#193=CARTESIAN_POINT('',(50.0,100.0,50.0));
#194=DIRECTION('',(0.0,-1.0,0.0));
#195=DIRECTION('',(0.0,0.0,-1.0));
#196=ORIENTED_EDGE('',*,*,#288,.T.);
#197=ORIENTED_EDGE('',*,*,#283,.F.);
#198=ORIENTED_EDGE('',*,*,#290,.F.);
#199=ORIENTED_EDGE('',*,*,#279,.F.);
#200=CARTESIAN_POINT('',(100.0,50.0,50.0));
#201=DIRECTION('',(-1.0,0.0,0.0));
#202=DIRECTION('',(0.0,0.0,1.0));
#203=ORIENTED_EDGE('',*,*,#291,.F.);
#204=ORIENTED_EDGE('',*,*,#292,.T.);
#205=CARTESIAN_POINT('',(0.0,0.0,0.0));
#206=DIRECTION('',(0.0,0.0,1.0));
#207=DIRECTION('',(1.0,0.0,0.0));
#208=ORIENTED_EDGE('',*,*,#291,.T.);
#209=ORIENTED_EDGE('',*,*,#292,.F.);
#210=CARTESIAN_POINT('',(0.0,0.0,0.0));
#211=DIRECTION('',(0.0,0.0,1.0));
#212=DIRECTION('',(1.0,0.0,0.0));
#213=ORIENTED_EDGE('',*,*,#293,.F.);
#214=ORIENTED_EDGE('',*,*,#294,.F.);
#215=ORIENTED_EDGE('',*,*,#295,.T.);
#216=ORIENTED_EDGE('',*,*,#296,.F.);
#217=CARTESIAN_POINT('',(49.7128448486328,15.0000010755859,53.1903457641602));
#218=DIRECTION('',(-0.0,1.0,0.0));
#219=DIRECTION('',(1.0,0.0,0.0));
#220=ORIENTED_EDGE('',*,*,#293,.T.);
#221=ORIENTED_EDGE('',*,*,#297,.F.);
#222=ORIENTED_EDGE('',*,*,#295,.F.);
#223=ORIENTED_EDGE('',*,*,#298,.F.);
#224=CARTESIAN_POINT('',(49.7128448486328,15.0000010755859,53.1903457641602));
#225=DIRECTION('',(-0.0,1.0,0.0));
#226=DIRECTION('',(1.0,0.0,0.0));
#227=ORIENTED_EDGE('',*,*,#296,.T.);
#228=ORIENTED_EDGE('',*,*,#297,.T.);
#229=CARTESIAN_POINT('',(49.7128448486328,1.07558594208967E-06,53.1903457641602));
#230=DIRECTION('',(0.0,-1.0,0.0));
#231=DIRECTION('',(-1.0,0.0,0.0));
#232=ORIENTED_EDGE('',*,*,#298,.T.);
#233=ORIENTED_EDGE('',*,*,#294,.T.);
#234=CARTESIAN_POINT('',(49.7128448486328,30.0000010755859,53.1903457641602));
#235=DIRECTION('',(-0.0,1.0,0.0));
#236=DIRECTION('',(1.0,0.0,0.0));
#237=ORIENTED_EDGE('',*,*,#299,.T.);
#238=ORIENTED_EDGE('',*,*,#300,.T.);
#239=ORIENTED_EDGE('',*,*,#301,.T.);
#240=ORIENTED_EDGE('',*,*,#302,.T.);
#241=CARTESIAN_POINT('',(15.0,15.0,120.0));
#242=DIRECTION('',(0.0,0.0,1.0));
#243=DIRECTION('',(1.0,0.0,0.0));
#244=ORIENTED_EDGE('',*,*,#303,.T.);
#245=ORIENTED_EDGE('',*,*,#304,.T.);
#246=ORIENTED_EDGE('',*,*,#305,.T.);
#247=ORIENTED_EDGE('',*,*,#306,.T.);
#248=CARTESIAN_POINT('',(15.0,15.0,100.0));
#249=DIRECTION('',(0.0,0.0,1.0));
#250=DIRECTION('',(1.0,0.0,0.0));
#251=ORIENTED_EDGE('',*,*,#307,.T.);
#252=ORIENTED_EDGE('',*,*,#304,.F.);
#253=ORIENTED_EDGE('',*,*,#308,.F.);
#254=ORIENTED_EDGE('',*,*,#302,.F.);
#255=CARTESIAN_POINT('',(15.0,0.0,110.0));
#256=DIRECTION('',(0.0,1.0,0.0));
#257=DIRECTION('',(0.0,0.0,1.0));
#258=ORIENTED_EDGE('',*,*,#309,.T.);
#259=ORIENTED_EDGE('',*,*,#305,.F.);
#260=ORIENTED_EDGE('',*,*,#307,.F.);
#261=ORIENTED_EDGE('',*,*,#301,.F.);
#262=CARTESIAN_POINT('',(0.0,15.0,110.0));
#263=DIRECTION('',(1.0,0.0,0.0));
#264=DIRECTION('',(0.0,0.0,-1.0));
#265=ORIENTED_EDGE('',*,*,#310,.T.);
#266=ORIENTED_EDGE('',*,*,#306,.F.);
#267=ORIENTED_EDGE('',*,*,#309,.F.);
#268=ORIENTED_EDGE('',*,*,#300,.F.);
#269=CARTESIAN_POINT('',(15.0,30.0,110.0));
#270=DIRECTION('',(0.0,-1.0,0.0));
#271=DIRECTION('',(0.0,0.0,-1.0));
#272=ORIENTED_EDGE('',*,*,#308,.T.);
#273=ORIENTED_EDGE('',*,*,#303,.F.);
#274=ORIENTED_EDGE('',*,*,#310,.F.);
#275=ORIENTED_EDGE('',*,*,#299,.F.);
#276=CARTESIAN_POINT('',(30.0,15.0,110.0));
#277=DIRECTION('',(-1.0,0.0,0.0));
#278=DIRECTION('',(0.0,0.0,1.0));
#279=EDGE_CURVE('',#311,#312,#313,.T.);
#280=EDGE_CURVE('',#312,#314,#315,.T.);
#281=EDGE_CURVE('',#314,#316,#317,.T.);
#282=EDGE_CURVE('',#316,#311,#318,.T.);
#283=EDGE_CURVE('',#319,#320,#321,.T.);
#284=EDGE_CURVE('',#320,#322,#323,.T.);
#285=EDGE_CURVE('',#322,#324,#325,.T.);
#286=EDGE_CURVE('',#324,#319,#326,.T.);
#287=EDGE_CURVE('',#316,#322,#327,.T.);
#288=EDGE_CURVE('',#311,#320,#328,.T.);
#289=EDGE_CURVE('',#314,#324,#329,.T.);
#290=EDGE_CURVE('',#312,#319,#330,.T.);
#291=EDGE_CURVE('',#331,#332,#333,.T.);
#292=EDGE_CURVE('',#331,#332,#334,.T.);
#293=EDGE_CURVE('',#335,#336,#337,.T.);
#294=EDGE_CURVE('',#338,#335,#339,.T.);
#295=EDGE_CURVE('',#338,#340,#341,.T.);
#296=EDGE_CURVE('',#336,#340,#342,.T.);
#297=EDGE_CURVE('',#340,#336,#343,.T.);
#298=EDGE_CURVE('',#335,#338,#344,.T.);
#299=EDGE_CURVE('',#345,#346,#347,.T.);
#300=EDGE_CURVE('',#346,#348,#349,.T.);
#301=EDGE_CURVE('',#348,#350,#351,.T.);
#302=EDGE_CURVE('',#350,#345,#352,.T.);
#303=EDGE_CURVE('',#353,#354,#355,.T.);
#304=EDGE_CURVE('',#354,#356,#357,.T.);
#305=EDGE_CURVE('',#356,#358,#359,.T.);
#306=EDGE_CURVE('',#358,#353,#360,.T.);
#307=EDGE_CURVE('',#350,#356,#361,.T.);
#308=EDGE_CURVE('',#345,#354,#362,.T.);
#309=EDGE_CURVE('',#348,#358,#363,.T.);
#310=EDGE_CURVE('',#346,#353,#364,.T.);
#311=VERTEX_POINT('',#365);
#312=VERTEX_POINT('',#366);
#313=LINE('',#367,#368);
#314=VERTEX_POINT('',#369);
#315=LINE('',#370,#371);
#316=VERTEX_POINT('',#372);
#317=LINE('',#373,#374);
#318=LINE('',#375,#376);
#319=VERTEX_POINT('',#377);
#320=VERTEX_POINT('',#378);
#321=LINE('',#379,#380);
#322=VERTEX_POINT('',#381);
#323=LINE('',#382,#383);
#324=VERTEX_POINT('',#384);
#325=LINE('',#385,#386);
#326=LINE('',#387,#388);
#327=LINE('',#389,#390);
#328=LINE('',#391,#392);
#329=LINE('',#393,#394);
#330=LINE('',#395,#396);
#331=VERTEX_POINT('',#397);
#332=VERTEX_POINT('',#398);
#333=CIRCLE('',#399,10.0);
#334=CIRCLE('',#400,10.0);
#335=VERTEX_POINT('',#401);
#336=VERTEX_POINT('',#402);
#337=LINE('',#403,#404);
#338=VERTEX_POINT('',#405);
#339=CIRCLE('',#406,20.0);
#340=VERTEX_POINT('',#407);
#341=LINE('',#408,#409);
#342=CIRCLE('',#410,20.0);
#343=CIRCLE('',#411,20.0);
#344=CIRCLE('',#412,20.0);
#345=VERTEX_POINT('',#413);
#346=VERTEX_POINT('',#414);
#347=LINE('',#415,#416);
#348=VERTEX_POINT('',#417);
#349=LINE('',#418,#419);
#350=VERTEX_POINT('',#420);
#351=LINE('',#421,#422);
#352=LINE('',#423,#424);
#353=VERTEX_POINT('',#425);
#354=VERTEX_POINT('',#426);
#355=LINE('',#427,#428);
#356=VERTEX_POINT('',#429);
#357=LINE('',#430,#431);
#358=VERTEX_POINT('',#432);
#359=LINE('',#433,#434);
#360=LINE('',#435,#436);
#361=LINE('',#437,#438);
#362=LINE('',#439,#440);
#363=LINE('',#441,#442);
#364=LINE('',#443,#444);
#365=CARTESIAN_POINT('',(100.0,0.0,100.0));
#366=CARTESIAN_POINT('',(100.0,100.0,100.0));
#367=CARTESIAN_POINT('',(100.0,50.0,100.0));
#368=VECTOR('',#445,1.0);
#369=CARTESIAN_POINT('',(0.0,100.0,100.0));
#370=CARTESIAN_POINT('',(50.0,100.0,100.0));
#371=VECTOR('',#446,1.0);
#372=CARTESIAN_POINT('',(0.0,0.0,100.0));
#373=CARTESIAN_POINT('',(0.0,50.0,100.0));
#374=VECTOR('',#447,1.0);
#375=CARTESIAN_POINT('',(50.0,0.0,100.0));
#376=VECTOR('',#448,1.0);
#377=CARTESIAN_POINT('',(100.0,100.0,0.0));
#378=CARTESIAN_POINT('',(100.0,0.0,0.0));
#379=CARTESIAN_POINT('',(100.0,50.0,0.0));
#380=VECTOR('',#449,1.0);
#381=CARTESIAN_POINT('',(0.0,0.0,0.0));
#382=CARTESIAN_POINT('',(50.0,0.0,0.0));
#383=VECTOR('',#450,1.0);
#384=CARTESIAN_POINT('',(0.0,100.0,0.0));
#385=CARTESIAN_POINT('',(0.0,50.0,0.0));
#386=VECTOR('',#451,1.0);
#387=CARTESIAN_POINT('',(50.0,100.0,0.0));
#388=VECTOR('',#452,1.0);
#389=CARTESIAN_POINT('',(0.0,0.0,50.0));
#390=VECTOR('',#453,1.0);
#391=CARTESIAN_POINT('',(100.0,0.0,50.0));
#392=VECTOR('',#454,1.0);
#393=CARTESIAN_POINT('',(0.0,100.0,50.0));
#394=VECTOR('',#455,1.0);
#395=CARTESIAN_POINT('',(100.0,100.0,50.0));
#396=VECTOR('',#456,1.0);
#397=CARTESIAN_POINT('',(-6.12323399573677E-16,-7.49879891330929E-32,10.0));
#398=CARTESIAN_POINT('',(-6.12323399573677E-16,-7.49879891330929E-32,-10.0));
#399=AXIS2_PLACEMENT_3D('',#457,#458,#459);
#400=AXIS2_PLACEMENT_3D('',#460,#461,#462);
#401=CARTESIAN_POINT('',(69.7128448486328,30.0000010755859,53.1903457641602));
#402=CARTESIAN_POINT('',(69.7128448486328,1.07558594208967E-06,53.1903457641602));
#403=CARTESIAN_POINT('',(69.7128448486328,15.0000010755859,53.1903457641602));
#404=VECTOR('',#463,20.0);
#405=CARTESIAN_POINT('',(29.7128448486328,30.0000010755859,53.1903457641602));
#406=AXIS2_PLACEMENT_3D('',#464,#465,#466);
#407=CARTESIAN_POINT('',(29.7128448486328,1.07558594208967E-06,53.1903457641602));
#408=CARTESIAN_POINT('',(29.7128448486328,15.0000010755859,53.1903457641602));
#409=VECTOR('',#467,20.0);
#410=AXIS2_PLACEMENT_3D('',#468,#469,#470);
#411=AXIS2_PLACEMENT_3D('',#471,#472,#473);
#412=AXIS2_PLACEMENT_3D('',#474,#475,#476);
#413=CARTESIAN_POINT('',(30.0,0.0,120.0));
#414=CARTESIAN_POINT('',(30.0,30.0,120.0));
#415=CARTESIAN_POINT('',(30.0,15.0,120.0));
#416=VECTOR('',#477,1.0);
#417=CARTESIAN_POINT('',(0.0,30.0,120.0));
#418=CARTESIAN_POINT('',(15.0,30.0,120.0));
#419=VECTOR('',#478,1.0);
#420=CARTESIAN_POINT('',(0.0,0.0,120.0));
#421=CARTESIAN_POINT('',(0.0,15.0,120.0));
#422=VECTOR('',#479,1.0);
#423=CARTESIAN_POINT('',(15.0,0.0,120.0));
#424=VECTOR('',#480,1.0);
#425=CARTESIAN_POINT('',(30.0,30.0,100.0));
#426=CARTESIAN_POINT('',(30.0,0.0,100.0));
#427=CARTESIAN_POINT('',(30.0,15.0,100.0));
#428=VECTOR('',#481,1.0);
#429=CARTESIAN_POINT('',(0.0,0.0,100.0));
#430=CARTESIAN_POINT('',(15.0,0.0,100.0));
#431=VECTOR('',#482,1.0);
#432=CARTESIAN_POINT('',(0.0,30.0,100.0));
#433=CARTESIAN_POINT('',(0.0,15.0,100.0));
#434=VECTOR('',#483,1.0);
#435=CARTESIAN_POINT('',(15.0,30.0,100.0));
#436=VECTOR('',#484,1.0);
#437=CARTESIAN_POINT('',(0.0,0.0,110.0));
#438=VECTOR('',#485,1.0);
#439=CARTESIAN_POINT('',(30.0,0.0,110.0));
#440=VECTOR('',#486,1.0);
#441=CARTESIAN_POINT('',(0.0,30.0,110.0));
#442=VECTOR('',#487,1.0);
#443=CARTESIAN_POINT('',(30.0,30.0,110.0));
#444=VECTOR('',#488,1.0);
#445=DIRECTION('',(0.0,1.0,0.0));
#446=DIRECTION('',(-1.0,0.0,0.0));
#447=DIRECTION('',(0.0,-1.0,0.0));
#448=DIRECTION('',(1.0,0.0,0.0));
#449=DIRECTION('',(0.0,-1.0,0.0));
#450=DIRECTION('',(-1.0,0.0,0.0));
#451=DIRECTION('',(0.0,1.0,0.0));
#452=DIRECTION('',(1.0,0.0,0.0));
#453=DIRECTION('',(0.0,0.0,-1.0));
#454=DIRECTION('',(0.0,0.0,-1.0));
#455=DIRECTION('',(0.0,0.0,-1.0));
#456=DIRECTION('',(0.0,0.0,-1.0));
#457=CARTESIAN_POINT('',(0.0,0.0,0.0));
#458=DIRECTION('',(-0.0,1.0,0.0));
#459=DIRECTION('',(1.0,0.0,0.0));
#460=CARTESIAN_POINT('',(0.0,0.0,0.0));
#461=DIRECTION('',(1.22464679914735E-16,-1.0,-0.0));
#462=DIRECTION('',(-1.0,-1.22464679914735E-16,0.0));
#463=DIRECTION('',(-0.0,-1.0,0.0));
#464=CARTESIAN_POINT('',(49.7128448486328,30.0000010755859,53.1903457641602));
#465=DIRECTION('',(-0.0,1.0,0.0));
#466=DIRECTION('',(1.0,0.0,0.0));
#467=DIRECTION('',(-0.0,-1.0,0.0));
#468=CARTESIAN_POINT('',(49.7128448486328,1.07558594208967E-06,53.1903457641602));
#469=DIRECTION('',(0.0,-1.0,0.0));
#470=DIRECTION('',(1.0,0.0,0.0));
#471=CARTESIAN_POINT('',(49.7128448486328,1.07558594208967E-06,53.1903457641602));
#472=DIRECTION('',(0.0,-1.0,0.0));
#473=DIRECTION('',(1.0,0.0,0.0));
#474=CARTESIAN_POINT('',(49.7128448486328,30.0000010755859,53.1903457641602));
#475=DIRECTION('',(-0.0,1.0,0.0));
#476=DIRECTION('',(1.0,0.0,0.0));
#477=DIRECTION('',(0.0,1.0,0.0));
#478=DIRECTION('',(-1.0,0.0,0.0));
#479=DIRECTION('',(0.0,-1.0,0.0));
#480=DIRECTION('',(1.0,0.0,0.0));
#481=DIRECTION('',(0.0,-1.0,0.0));
#482=DIRECTION('',(-1.0,0.0,0.0));
#483=DIRECTION('',(0.0,1.0,0.0));
#484=DIRECTION('',(1.0,0.0,0.0));
#485=DIRECTION('',(0.0,0.0,-1.0));
#486=DIRECTION('',(0.0,0.0,-1.0));
#487=DIRECTION('',(0.0,0.0,-1.0));
#488=DIRECTION('',(0.0,0.0,-1.0));
ENDSEC;
END-ISO-10303-21;
